PathFileType	4	(X/Y/Z)	C:\Users\WrightLab\Desktop\Jo\P4V131.trc
DataRate	CameraRate	NumFrames	NumMarkers	Units	OrigDataRate	OrigDataStartFrame	OrigNumFrames
100.00	100.00	       23	19	mm	100.00	125	       497
Frame#	Time	Headset_Front			Headset_Back			Headset_Left			Headset_Right			Left_Shoulder			Right_Shoulder			Sternum			C7			Left Elbow			Right Elbow			Left Wrist			Right Wrist			Left ASIS			Right ASIS			S2			Left Knee			Right Knee			Left Ankle			Right Ankle			
		X1	Y1	Z1	X2	Y2	Z2	X3	Y3	Z3	X4	Y4	Z4	X5	Y5	Z5	X6	Y6	Z6	X7	Y7	Z7	X8	Y8	Z8	X9	Y9	Z9	X10	Y10	Z10	X11	Y11	Z11	X12	Y12	Z12	X13	Y13	Z13	X14	Y14	Z14	X15	Y15	Z15	X16	Y16	Z16	X17	Y17	Z17	X18	Y18	Z18	X19	Y19	Z19	

125	1.240				-543.28271	1733.35986	-809.82251							-385.66193	1487.72363	-678.87274	-688.35980	1493.83789	-733.93243	-545.12463	1425.55884	-599.24750	-534.87695	1521.13037	-766.34479	-251.48914	1137.00977	-699.36353	-843.16754	1150.80127	-753.06042	-298.50885	841.88556	-610.29626	-883.97699	892.37897	-586.48376	-418.76727	985.49634	-607.11926	-744.61035	1001.73798	-671.14209				-494.56503	517.51801	-527.50732	-813.24628	524.35730	-719.79919	-624.34558	37.75194	-572.24780				
126	1.250				-543.71686	1735.57898	-799.57458							-386.51865	1488.95996	-665.79620	-689.48633	1495.59985	-722.53253	-544.02399	1426.94556	-588.23956	-535.75226	1522.95605	-756.05792	-251.16704	1138.31665	-689.13141	-843.58368	1152.25732	-741.03186	-299.25369	843.73242	-598.02588	-882.96814	892.98370	-576.91772	-416.97424	986.05676	-599.76233	-744.36145	1003.15332	-660.99219				-494.49493	517.51074	-524.21808	-816.08392	526.84241	-694.34192	-624.37396	38.16059	-571.92743				
127	1.260	-529.40247	1665.77283	-479.97150	-544.29486	1737.56445	-789.10077							-386.98724	1491.96643	-664.13989	-690.10211	1496.72278	-711.11920	-544.39099	1429.01257	-578.82141	-536.56067	1525.09875	-746.16351	-251.91333	1140.91895	-679.10681	-844.17035	1153.30530	-729.22424	-300.06015	846.73761	-585.66034	-881.06213	894.20258	-565.31409	-414.02805	987.26636	-590.20544	-742.36627	1006.91937	-646.71155				-493.92719	517.55597	-520.88403	-818.91125	529.85669	-668.79443	-625.10815	37.95193	-571.83075				
128	1.270	-644.43140	1686.87915	-574.05829	-544.81726	1739.48376	-778.85925							-386.57675	1493.86548	-656.75415	-690.58209	1498.03796	-700.24738	-543.46179	1430.94690	-568.48969	-537.40552	1527.00195	-736.63513	-251.40294	1142.34546	-668.03351	-844.73395	1154.90649	-717.57159	-300.59955	849.04443	-572.11267	-879.55444	894.89233	-554.06934	-412.46289	988.56726	-583.32532	-741.61823	1009.55011	-632.25195				-493.15054	516.40350	-519.03394	-820.51947	534.12610	-644.08710	-624.37396	38.16059	-571.92743				
129	1.280	-644.28394	1688.46338	-563.47998	-545.41858	1741.53772	-768.64227							-387.42014	1495.44788	-645.09448	-691.02563	1499.87537	-689.86603	-543.28680	1432.90540	-558.65106	-538.12091	1528.66016	-726.50726	-251.33334	1143.87830	-656.91132	-845.26117	1156.52100	-705.75134	-300.81055	852.00403	-559.14056	-877.85712	896.13800	-544.68835	-409.72690	989.92865	-575.00519	-739.59094	1010.70111	-622.22272				-493.19321	515.48651	-516.83063	-820.01923	537.85950	-619.75568	-624.37396	38.16059	-571.92743				
130	1.290	-431.86557	1639.46863	-406.67151	-545.78033	1743.71155	-758.42651							-386.86038	1497.59045	-634.31976	-691.37048	1501.37622	-679.58728	-543.84143	1435.30518	-549.76355	-538.71613	1530.74744	-717.34857	-251.61667	1145.77808	-645.78430	-845.64734	1158.07410	-694.77332	-301.29059	854.65192	-545.56287	-876.51251	896.90332	-534.17090	-407.61209	990.59070	-565.86957	-737.49829	1013.40674	-608.62048				-491.69690	515.85846	-513.42310	-819.26691	542.46655	-595.13263	-623.76422	37.78437	-572.06439				
131	1.300	-431.88992	1641.12341	-397.03922	-546.22827	1746.07349	-748.79919							-386.61633	1499.91235	-630.89307	-691.64001	1502.88367	-669.36639	-542.95801	1437.28113	-540.56201	-539.23041	1532.39233	-707.88403	-252.28606	1148.16357	-635.95068	-845.97064	1159.69983	-683.63226	-301.49533	857.70612	-531.12177	-875.01556	897.40314	-523.10962	-405.27878	991.55566	-559.43109	-736.73022	1017.97607	-593.12042				-489.19382	515.20618	-511.22543	-818.30786	546.73022	-569.83240	-623.76422	37.78437	-572.06439				
132	1.310	-643.62158	1693.82227	-533.00000	-546.61664	1748.23108	-738.53870							-386.42581	1501.59888	-621.19629	-691.84735	1504.78674	-660.00269	-541.76697	1439.67419	-531.18439	-539.79932	1534.06238	-698.62463	-252.28665	1150.06213	-625.31110	-845.80524	1161.19849	-672.58472	-301.80295	860.95123	-518.09711	-872.62061	897.69836	-513.30414	-403.36087	992.76538	-552.98822	-734.67389	1020.86359	-579.79877				-486.86679	515.63599	-508.45020	-816.51123	551.05353	-545.88568	-623.76422	37.78437	-572.06439				
133	1.320	-431.57611	1644.98828	-377.71234	-546.82690	1750.36560	-729.12585							-386.64615	1503.30884	-609.69580	-691.91632	1506.10767	-649.46997	-541.05188	1441.39966	-521.61560	-540.18048	1535.79346	-688.99036	-252.54808	1152.32617	-615.03735	-845.79663	1163.03186	-661.48712	-301.97391	863.40643	-503.79324	-871.47839	899.41504	-503.22849	-401.66388	993.94019	-544.74188	-732.01453	1022.52454	-568.54755				-485.26025	515.34973	-506.28784	-814.44592	555.96722	-522.01587	-623.46460	37.56353	-572.00720				
134	1.330	-431.22192	1647.04163	-368.46811	-547.01398	1752.46008	-718.97198							-385.99677	1505.32776	-602.15991	-691.89044	1507.34875	-638.47980	-539.07001	1442.92139	-512.44995	-540.39771	1537.61365	-680.69641	-252.74982	1153.85193	-603.95898	-845.76526	1164.29297	-650.62183	-302.01132	866.17322	-489.46503	-868.76721	899.85815	-491.82492	-398.31146	994.60193	-538.30408	-729.93768	1024.20789	-556.68402				-484.14993	514.89386	-504.17020	-811.43756	559.98248	-498.73642	-623.76422	37.78437	-572.06439				
135	1.340	-427.50528	1698.52246	-589.74646	-547.17072	1754.19617	-708.99878							-385.55200	1507.42542	-598.38916	-690.93616	1508.43213	-627.52789	-537.13336	1444.60059	-502.77377	-540.65295	1538.74731	-671.19141	-252.89659	1155.79846	-594.55237	-845.47980	1165.21838	-639.27747	-302.37207	870.64618	-475.92764	-867.18011	900.91229	-481.69028	-396.67630	995.36761	-532.23981	-728.58081	1028.48682	-539.88733				-482.50937	514.50977	-502.55734	-808.41113	563.92303	-475.01074	-623.46460	37.56353	-572.00720				
136	1.350	-427.08209	1700.02454	-580.85706	-547.17999	1756.10339	-699.90894							-384.75476	1509.01196	-591.68060	-690.81445	1509.83362	-617.49414	-533.99219	1445.97815	-491.83575	-540.89020	1539.65405	-661.44141	-252.86569	1157.38745	-583.92731	-845.62152	1166.36267	-628.28986	-302.09296	873.09833	-459.71246	-865.77832	902.24335	-472.12967	-392.49823	997.12115	-523.76514	-726.28864	1031.59949	-525.06482				-481.64294	515.01282	-500.48407	-804.61261	568.84644	-453.59744	-623.46460	37.56353	-572.00720				
137	1.360	-426.62399	1701.39478	-571.22650	-547.09009	1757.55811	-689.89624							-384.43918	1509.96521	-576.89337	-690.34393	1510.73315	-606.71118	-533.61310	1446.97229	-483.94891	-540.97290	1540.69507	-652.72803	-252.86282	1158.52161	-574.06396	-845.18903	1167.79871	-617.71442	-302.28439	875.97760	-445.39273	-864.51105	902.92896	-461.04028	-392.39139	996.33838	-521.93817	-724.05573	1032.44421	-511.58359				-481.44437	514.42365	-500.12173	-800.04907	572.73621	-431.21817	-623.46460	37.56353	-572.00720	-753.39832	230.08578	-794.41357	
138	1.370	-425.96207	1702.57739	-562.67889	-546.92792	1758.72009	-680.58368							-384.49930	1512.10681	-571.95178	-689.91309	1511.59241	-596.33002	-530.90118	1447.73767	-473.83481	-540.92639	1541.91687	-643.59161	-252.58830	1159.43005	-564.16388	-844.57642	1168.69214	-606.89990	-302.35019	880.31781	-431.32819	-863.38501	903.70428	-450.40518	-389.58911	996.64343	-514.25580	-721.03876	1032.89966	-503.78134				-480.21790	514.63000	-499.27130	-795.23706	575.77222	-410.01126	-623.46460	37.56353	-572.00720	-761.07874	223.96458	-766.30261	
139	1.380	-425.20313	1703.56555	-553.56104										-383.67941	1512.48230	-567.75018	-689.58929	1512.46826	-585.16022	-529.80298	1449.58899	-465.23523	-540.89185	1542.50134	-633.85431	-252.27888	1160.26880	-553.66272	-844.29700	1169.71558	-596.67816	-302.62207	883.25781	-415.57343	-861.88336	903.85437	-440.92398	-387.45587	997.58521	-508.51059	-718.40869	1035.35693	-487.33282				-479.34540	514.42212	-498.21979	-790.54810	579.72070	-389.84695	-623.76422	37.78437	-572.06439	-769.08905	215.47951	-736.56451	
140	1.390	-424.46838	1704.52771	-543.94702	-638.41620	1700.36755	-454.91641							-382.27182	1513.53455	-556.58667	-689.24524	1513.12610	-574.80853	-528.25781	1450.77625	-456.53555	-540.80432	1542.97473	-624.42963	-251.55486	1161.19373	-543.51208	-843.48718	1169.87476	-585.23041	-302.32437	885.86816	-400.91049	-859.71600	904.22260	-430.87350	-385.85571	996.20398	-503.49429	-714.61469	1040.08447	-464.76080				-478.79636	514.19324	-497.02930	-785.46875	583.16937	-370.42096	-623.76422	37.78437	-572.06439	-776.20020	207.61810	-707.20264	
141	1.400													-381.29926	1513.38257	-550.12207	-688.07843	1513.31226	-563.08307	-526.13647	1450.27307	-446.61954	-540.51862	1543.80627	-615.27161	-251.58972	1161.50806	-533.03467	-843.02979	1170.29968	-573.72144	-302.58362	889.61041	-385.94623	-858.47174	904.05615	-420.32043	-383.39456	995.81201	-496.91998	-712.84833	1037.08313	-462.29761				-478.57980	514.29474	-495.33679	-779.93738	585.87122	-351.04202	-623.76422	37.78437	-572.06439	-782.74603	198.37418	-674.96301	
142	1.410	-635.92719	1700.27100	-435.73013										-379.84805	1513.56042	-541.21368	-687.37421	1513.66699	-552.51917	-524.58655	1450.70496	-437.22668	-540.32733	1543.77515	-606.10620	-250.91518	1161.77002	-523.14410	-842.40015	1170.86121	-562.52625	-302.70624	892.97217	-371.54303	-856.37555	903.50427	-408.78723	-381.94058	996.18866	-490.05078	-710.84338	1038.22363	-448.05472				-478.13403	513.53595	-494.15637	-774.21283	588.60052	-333.56107	-623.76422	37.78437	-572.06439	-788.10999	189.67383	-644.69171	
143	1.420													-378.90604	1513.49316	-532.22125	-686.69592	1513.79785	-541.26593	-522.90167	1450.92651	-428.17880	-539.88489	1544.15002	-596.28424	-249.96765	1162.16516	-513.75317	-841.50775	1171.10657	-551.05151	-302.93329	896.41937	-355.70255	-855.32025	902.95978	-398.74942	-381.32761	995.65924	-484.23950	-706.90082	1040.35474	-428.04221				-477.54227	513.00500	-492.72009	-765.29590	591.08936	-314.80127	-623.76422	37.78437	-572.06439	-792.66223	180.06593	-611.79907	
144	1.430	-633.40796	1700.79895	-416.87283										-377.58414	1513.91199	-525.22784	-685.44678	1513.88843	-530.73083	-521.05505	1451.32874	-419.17599	-539.31995	1543.78931	-586.86127	-248.92752	1162.00513	-504.13333	-841.67987	1171.19934	-538.84918	-302.66187	898.99548	-341.32465	-853.23694	902.84900	-388.37280	-378.16257	994.24542	-480.09219	-704.05298	1041.04541	-415.51868				-477.28592	513.07990	-491.36652	-758.92889	592.91467	-298.10202	-623.79248	38.19304	-571.74402	-796.76831	170.19490	-576.79608	
145	1.440	-631.88373	1700.82678	-406.99231										-376.90411	1513.32996	-519.44330	-685.21783	1514.52161	-519.78931	-518.14514	1451.61145	-408.76859	-538.91742	1543.95447	-577.44189	-248.15012	1161.57202	-494.33194	-839.54028	1171.19397	-527.28894	-302.97476	902.36749	-326.54489	-851.05859	902.13287	-377.51578	-376.97476	994.34906	-474.25922	-701.22845	1041.33484	-402.91150				-476.88852	512.99512	-488.85010	-751.92896	594.21246	-281.58929	-623.79248	38.19304	-571.74402	-799.54169	161.33121	-543.97565	
146	1.450	-630.15997	1700.22668	-397.28152										-375.32642	1512.52771	-509.86646	-684.28052	1514.97437	-508.99573	-516.24164	1449.75305	-399.90442	-538.57880	1543.97729	-567.72247	-247.26471	1161.54407	-485.08127	-838.67914	1171.35706	-515.34082	-302.79211	905.35468	-313.26776	-849.65363	901.45465	-366.79251	-375.81897	993.96790	-467.17270	-699.43256	1038.43933	-399.49249				-476.35355	512.75659	-486.95831	-744.53003	595.47723	-266.26282	-623.79248	38.19304	-571.74402	-800.76843	151.29779	-508.60208	
147	1.460	-628.73334	1699.93176	-387.95187										-374.73846	1512.02551	-502.88428	-682.46436	1514.55847	-497.30872	-514.21411	1449.79175	-390.59659	-537.53296	1543.31323	-557.35156	-246.77675	1160.28137	-474.20264	-838.00446	1171.81897	-503.38580	-303.08136	908.20068	-299.06995	-847.82129	900.40106	-355.60287	-374.29257	993.53101	-461.19244	-696.17609	1041.30542	-379.31131				-475.77518	512.49890	-483.58694	-738.62628	596.39697	-251.98087	-623.79248	38.19304	-571.74402	-800.90759	142.02126	-473.42325	
